<svg xmlns="http://www.w3.org/2000/svg" xmlns:xlink="http://www.w3.org/1999/xlink" width="176pt" height="472pt" viewBox="0.00 0.00 176.29 472.20">
<g id="graph0" class="graph" transform="scale(1 1) rotate(0) translate(4 468.2)">
<title>p_incrementer</title>
<polygon fill="white" stroke="none" points="-4,4 -4,-468.2 172.29,-468.2 172.29,4 -4,4"/>
<!-- GT -->
<g id="node1" class="node">
<title>GT</title>
<polygon fill="none" stroke="black" stroke-dasharray="1,5" points="82.85,-464.2 0,-464.2 0,-428.2 82.85,-428.2 82.85,-464.2"/>
<text text-anchor="middle" x="41.42" y="-442" font-family="Times,serif" font-size="14.00">incrementer</text>
</g>
<!-- S1 -->
<g id="node2" class="node">
<title>S1</title>
<ellipse fill="none" stroke="black" cx="41.42" cy="-373.2" rx="27" ry="18"/>
<text text-anchor="middle" x="41.42" y="-369" font-family="Times,serif" font-size="14.00">S1</text>
</g>
<!-- GT&#45;&gt;S1 -->
<g id="edge1" class="edge">
<title>GT-&gt;S1</title>
<path fill="none" stroke="black" d="M41.42,-428.01C41.42,-420.43 41.42,-411.3 41.42,-402.74"/>
<polygon fill="black" stroke="black" points="44.92,-402.74 41.42,-392.74 37.92,-402.74 44.92,-402.74"/>
</g>
<!-- S2 -->
<g id="node3" class="node">
<title>S2</title>
<ellipse fill="none" stroke="black" cx="41.42" cy="-284.4" rx="27" ry="18"/>
<text text-anchor="middle" x="41.42" y="-280.2" font-family="Times,serif" font-size="14.00">S2</text>
</g>
<!-- S1&#45;&gt;S2 -->
<g id="edge2" class="edge">
<title>S1-&gt;S2</title>
<path fill="none" stroke="red" stroke-width="2" d="M41.42,-355.05C41.42,-343.36 41.42,-327.59 41.42,-314.02"/>
<polygon fill="red" stroke="red" stroke-width="2" points="44.92,-315.84 41.42,-305.84 37.92,-315.84 44.92,-315.84"/>
<text text-anchor="middle" x="80.75" y="-324.6" font-family="Times,serif" font-size="14.00">tmp = counter</text>
</g>
<!-- S3 -->
<g id="node4" class="node">
<title>S3</title>
<ellipse fill="none" stroke="black" cx="41.42" cy="-195.6" rx="27" ry="18"/>
<text text-anchor="middle" x="41.42" y="-191.4" font-family="Times,serif" font-size="14.00">S3</text>
</g>
<!-- S2&#45;&gt;S3 -->
<g id="edge3" class="edge">
<title>S2-&gt;S3</title>
<path fill="none" stroke="red" stroke-width="2" d="M41.42,-266.25C41.42,-254.56 41.42,-238.79 41.42,-225.22"/>
<polygon fill="red" stroke="red" stroke-width="2" points="44.92,-227.04 41.42,-217.04 37.92,-227.04 44.92,-227.04"/>
<text text-anchor="middle" x="92.86" y="-235.8" font-family="Times,serif" font-size="14.00">counter = (tmp+1)</text>
</g>
<!-- S4 -->
<g id="node5" class="node">
<title>S4</title>
<polygon fill="none" stroke="blue" stroke-width="2" points="68.42,-124.8 14.42,-124.8 14.42,-88.8 68.42,-88.8 68.42,-124.8"/>
<text text-anchor="middle" x="41.42" y="-102.6" font-family="Times,serif" font-size="14.00">S4</text>
</g>
<!-- S3&#45;&gt;S4 -->
<g id="edge4" class="edge">
<title>S3-&gt;S4</title>
<path fill="none" stroke="red" stroke-width="2" d="M41.42,-177.45C41.42,-165.76 41.42,-149.99 41.42,-136.42"/>
<polygon fill="red" stroke="red" stroke-width="2" points="44.92,-138.24 41.42,-128.24 37.92,-138.24 44.92,-138.24"/>
<text text-anchor="middle" x="104.86" y="-147" font-family="Times,serif" font-size="14.00">progress[procs_id] = 1</text>
</g>
<!-- S0 -->
<g id="node6" class="node">
<title>S0</title>
<ellipse fill="none" stroke="black" cx="41.42" cy="-18" rx="27" ry="18"/>
<text text-anchor="middle" x="41.42" y="-13.8" font-family="Times,serif" font-size="14.00">S0</text>
</g>
<!-- S4&#45;&gt;S0 -->
<g id="edge5" class="edge">
<title>S4-&gt;S0</title>
<path fill="none" stroke="black" d="M41.42,-88.65C41.42,-76.96 41.42,-61.19 41.42,-47.62"/>
<polygon fill="black" stroke="black" points="44.92,-47.92 41.42,-37.92 37.92,-47.92 44.92,-47.92"/>
<text text-anchor="middle" x="56.19" y="-58.2" font-family="Times,serif" font-size="14.00">-end-</text>
</g>
</g>
</svg>