<svg xmlns="http://www.w3.org/2000/svg" xmlns:xlink="http://www.w3.org/1999/xlink" contentStyleType="text/css" data-diagram-type="SEQUENCE" height="418px" preserveAspectRatio="none" style="width:174px;height:418px;background:#FFFFFF;" version="1.1" viewBox="0 0 174 418" width="174px" zoomAndPan="magnify"><defs/><g><rect fill="none" height="104.5313" style="stroke:#000000;stroke-width:1.5;" width="158.2974" x="10" y="53.2969"/><rect fill="none" height="75.3984" style="stroke:#000000;stroke-width:1.5;" width="158.2974" x="10" y="171.8281"/><rect fill="none" height="104.5313" style="stroke:#000000;stroke-width:1.5;" width="158.2974" x="10" y="261.2266"/><g><title>client</title><rect fill="#000000" fill-opacity="0.00000" height="346.4609" width="8" x="42.2261" y="36.2969"/><line style="stroke:#181818;stroke-width:0.5;stroke-dasharray:5.0,5.0;" x1="46" x2="46" y1="36.2969" y2="382.7578"/></g><g><title>server</title><rect fill="#000000" fill-opacity="0.00000" height="346.4609" width="8" x="125.1387" y="36.2969"/><line style="stroke:#181818;stroke-width:0.5;stroke-dasharray:5.0,5.0;" x1="128.98" x2="128.98" y1="36.2969" y2="382.7578"/></g><g class="participant participant-head" data-participant="client"><rect fill="#E2E2F0" height="30.2969" rx="2.5" ry="2.5" style="stroke:#181818;stroke-width:0.5;" width="52.4521" x="20" y="5"/><text fill="#000000" font-family="sans-serif" font-size="14" lengthAdjust="spacing" textLength="38.4521" x="27" y="24.9951">client</text></g><g class="participant participant-tail" data-participant="client"><rect fill="#E2E2F0" height="30.2969" rx="2.5" ry="2.5" style="stroke:#181818;stroke-width:0.5;" width="52.4521" x="20" y="381.7578"/><text fill="#000000" font-family="sans-serif" font-size="14" lengthAdjust="spacing" textLength="38.4521" x="27" y="401.7529">client</text></g><g class="participant participant-head" data-participant="server"><rect fill="#E2E2F0" height="30.2969" rx="2.5" ry="2.5" style="stroke:#181818;stroke-width:0.5;" width="58.3174" x="99.98" y="5"/><text fill="#000000" font-family="sans-serif" font-size="14" lengthAdjust="spacing" textLength="44.3174" x="106.98" y="24.9951">server</text></g><g class="participant participant-tail" data-participant="server"><rect fill="#E2E2F0" height="30.2969" rx="2.5" ry="2.5" style="stroke:#181818;stroke-width:0.5;" width="58.3174" x="99.98" y="381.7578"/><text fill="#000000" font-family="sans-serif" font-size="14" lengthAdjust="spacing" textLength="44.3174" x="106.98" y="401.7529">server</text></g><path d="M10,53.2969 L142.8643,53.2969 L142.8643,60.4297 L132.8643,70.4297 L10,70.4297 L10,53.2969" fill="#EEEEEE" style="stroke:#000000;stroke-width:1.5;"/><rect fill="none" height="104.5313" style="stroke:#000000;stroke-width:1.5;" width="158.2974" x="10" y="53.2969"/><text fill="#000000" font-family="sans-serif" font-size="13" font-weight="bold" lengthAdjust="spacing" textLength="87.8643" x="25" y="66.3638">synchronize</text><g class="message" data-participant-1="client" data-participant-2="server"><polygon fill="#181818" points="117.1387,87.5625,127.1387,91.5625,117.1387,95.5625,121.1387,91.5625" style="stroke:#181818;stroke-width:1;"/><line style="stroke:#181818;stroke-width:1;" x1="46.2261" x2="123.1387" y1="91.5625" y2="91.5625"/><text fill="#000000" font-family="sans-serif" font-size="13" lengthAdjust="spacing" textLength="25.9175" x="53.2261" y="86.4966">SYN</text></g><g class="message" data-participant-1="server" data-participant-2="client"><polygon fill="#181818" points="57.2261,116.6953,47.2261,120.6953,57.2261,124.6953,53.2261,120.6953" style="stroke:#181818;stroke-width:1;"/><line style="stroke:#181818;stroke-width:1;stroke-dasharray:2.0,2.0;" x1="51.2261" x2="128.1387" y1="120.6953" y2="120.6953"/><text fill="#000000" font-family="sans-serif" font-size="13" lengthAdjust="spacing" textLength="58.9126" x="63.2261" y="115.6294">SYN_ACK</text></g><g class="message" data-participant-1="client" data-participant-2="server"><polygon fill="#181818" points="117.1387,145.8281,127.1387,149.8281,117.1387,153.8281,121.1387,149.8281" style="stroke:#181818;stroke-width:1;"/><line style="stroke:#181818;stroke-width:1;" x1="46.2261" x2="123.1387" y1="149.8281" y2="149.8281"/><text fill="#000000" font-family="sans-serif" font-size="13" lengthAdjust="spacing" textLength="26.4951" x="53.2261" y="144.7622">ACK</text></g><path d="M10,171.8281 L86.624,171.8281 L86.624,178.9609 L76.624,188.9609 L10,188.9609 L10,171.8281" fill="#EEEEEE" style="stroke:#000000;stroke-width:1.5;"/><rect fill="none" height="75.3984" style="stroke:#000000;stroke-width:1.5;" width="158.2974" x="10" y="171.8281"/><text fill="#000000" font-family="sans-serif" font-size="13" font-weight="bold" lengthAdjust="spacing" textLength="31.624" x="25" y="184.895">loop</text><text fill="#000000" font-family="sans-serif" font-size="11" font-weight="bold" lengthAdjust="spacing" textLength="56.0366" x="101.624" y="184.0386">[3 times]</text><g class="message" data-participant-1="client" data-participant-2="server"><polygon fill="#181818" points="117.1387,206.0938,127.1387,210.0938,117.1387,214.0938,121.1387,210.0938" style="stroke:#181818;stroke-width:1;"/><line style="stroke:#181818;stroke-width:1;" x1="46.2261" x2="123.1387" y1="210.0938" y2="210.0938"/><text fill="#000000" font-family="sans-serif" font-size="13" lengthAdjust="spacing" textLength="35.7373" x="53.2261" y="205.0278">DATA</text></g><g class="message" data-participant-1="server" data-participant-2="client"><polygon fill="#181818" points="57.2261,235.2266,47.2261,239.2266,57.2261,243.2266,53.2261,239.2266" style="stroke:#181818;stroke-width:1;"/><line style="stroke:#181818;stroke-width:1;stroke-dasharray:2.0,2.0;" x1="51.2261" x2="128.1387" y1="239.2266" y2="239.2266"/><text fill="#000000" font-family="sans-serif" font-size="13" lengthAdjust="spacing" textLength="26.4951" x="63.2261" y="234.1606">ACK</text></g><path d="M10,261.2266 L108.4346,261.2266 L108.4346,268.3594 L98.4346,278.3594 L10,278.3594 L10,261.2266" fill="#EEEEEE" style="stroke:#000000;stroke-width:1.5;"/><rect fill="none" height="104.5313" style="stroke:#000000;stroke-width:1.5;" width="158.2974" x="10" y="261.2266"/><text fill="#000000" font-family="sans-serif" font-size="13" font-weight="bold" lengthAdjust="spacing" textLength="53.4346" x="25" y="274.2935">finalize</text><g class="message" data-participant-1="client" data-participant-2="server"><polygon fill="#181818" points="117.1387,295.4922,127.1387,299.4922,117.1387,303.4922,121.1387,299.4922" style="stroke:#181818;stroke-width:1;"/><line style="stroke:#181818;stroke-width:1;" x1="46.2261" x2="123.1387" y1="299.4922" y2="299.4922"/><text fill="#000000" font-family="sans-serif" font-size="13" lengthAdjust="spacing" textLength="21.0361" x="53.2261" y="294.4263">FIN</text></g><g class="message" data-participant-1="server" data-participant-2="client"><polygon fill="#181818" points="57.2261,324.625,47.2261,328.625,57.2261,332.625,53.2261,328.625" style="stroke:#181818;stroke-width:1;"/><line style="stroke:#181818;stroke-width:1;stroke-dasharray:2.0,2.0;" x1="51.2261" x2="128.1387" y1="328.625" y2="328.625"/><text fill="#000000" font-family="sans-serif" font-size="13" lengthAdjust="spacing" textLength="54.0313" x="63.2261" y="323.5591">FIN_ACK</text></g><g class="message" data-participant-1="client" data-participant-2="server"><polygon fill="#181818" points="117.1387,353.7578,127.1387,357.7578,117.1387,361.7578,121.1387,357.7578" style="stroke:#181818;stroke-width:1;"/><line style="stroke:#181818;stroke-width:1;" x1="46.2261" x2="123.1387" y1="357.7578" y2="357.7578"/><text fill="#000000" font-family="sans-serif" font-size="13" lengthAdjust="spacing" textLength="26.4951" x="53.2261" y="352.6919">ACK</text></g><!--SRC=[Io_ABorGAAxCIyueoi_Bh4hbIix9JCqhKT2rKoXEBIfBBR9I28xquuAm5NI1mX05OE5uHsTlB1f0egbvALnSEVdv1Gh62YMPkQd5N0f0WAdMnJ744Io5nGQuEUbWLwPbvYNcO7UYcoTM9mA5yJiH0000]--></g></svg>