<svg xmlns="http://www.w3.org/2000/svg" xmlns:xlink="http://www.w3.org/1999/xlink" width="168pt" height="720pt" viewBox="0.00 0.00 167.71 720.00">
<g id="graph0" class="graph" transform="scale(0.785855 0.785855) rotate(0) translate(4 912.2)">
<title>p_incrementer</title>
<polygon fill="white" stroke="none" points="-4,4 -4,-912.2 209.41,-912.2 209.41,4 -4,4"/>
<!-- GT -->
<g id="node1" class="node">
<title>GT</title>
<polygon fill="none" stroke="black" stroke-dasharray="1,5" points="194.42,-908.2 111.58,-908.2 111.58,-872.2 194.42,-872.2 194.42,-908.2"/>
<text text-anchor="middle" x="153" y="-886" font-family="Times,serif" font-size="14.00">incrementer</text>
</g>
<!-- S10 -->
<g id="node2" class="node">
<title>S10</title>
<ellipse fill="none" stroke="black" cx="153" cy="-817.2" rx="27" ry="18"/>
<text text-anchor="middle" x="153" y="-813" font-family="Times,serif" font-size="14.00">S10</text>
</g>
<!-- GT&#45;&gt;S10 -->
<g id="edge1" class="edge">
<title>GT-&gt;S10</title>
<path fill="none" stroke="black" d="M153,-872.01C153,-864.43 153,-855.3 153,-846.74"/>
<polygon fill="black" stroke="black" points="156.5,-846.74 153,-836.74 149.5,-846.74 156.5,-846.74"/>
</g>
<!-- S9 -->
<g id="node3" class="node">
<title>S9</title>
<ellipse fill="none" stroke="black" cx="126" cy="-728.4" rx="27" ry="18"/>
<text text-anchor="middle" x="126" y="-724.2" font-family="Times,serif" font-size="14.00">S9</text>
</g>
<!-- S10&#45;&gt;S9 -->
<g id="edge2" class="edge">
<title>S10-&gt;S9</title>
<path fill="none" stroke="blue" d="M147.79,-799.46C144.08,-787.53 139.01,-771.21 134.69,-757.32"/>
<polygon fill="blue" stroke="blue" points="138.04,-756.34 131.73,-747.83 131.36,-758.41 138.04,-756.34"/>
<text text-anchor="middle" x="150.08" y="-768.6" font-family="Times,serif" font-size="14.00">(1)</text>
</g>
<!-- S3 -->
<g id="node4" class="node">
<title>S3</title>
<ellipse fill="none" stroke="black" cx="27" cy="-639.6" rx="27" ry="18"/>
<text text-anchor="middle" x="27" y="-635.4" font-family="Times,serif" font-size="14.00">S3</text>
</g>
<!-- S9&#45;&gt;S3 -->
<g id="edge3" class="edge">
<title>S9-&gt;S3</title>
<path fill="none" stroke="black" stroke-dasharray="5,2" d="M100.4,-721.94C82.82,-716.97 60.14,-707.97 45.57,-692.4 39.46,-685.88 35.34,-677.21 32.57,-668.83"/>
<polygon fill="black" stroke="black" points="35.97,-668.01 29.96,-659.28 29.22,-669.85 35.97,-668.01"/>
<text text-anchor="middle" x="83.78" y="-679.8" font-family="Times,serif" font-size="14.00">((mutex==0))</text>
</g>
<!-- S6 -->
<g id="node5" class="node">
<title>S6</title>
<ellipse fill="none" stroke="black" cx="126" cy="-639.6" rx="27" ry="18"/>
<text text-anchor="middle" x="126" y="-635.4" font-family="Times,serif" font-size="14.00">S6</text>
</g>
<!-- S9&#45;&gt;S6 -->
<g id="edge4" class="edge">
<title>S9-&gt;S6</title>
<path fill="none" stroke="black" stroke-dasharray="5,2" d="M126,-710.25C126,-698.56 126,-682.79 126,-669.22"/>
<polygon fill="black" stroke="black" points="129.5,-669.52 126,-659.52 122.5,-669.52 129.5,-669.52"/>
<text text-anchor="middle" x="136.88" y="-679.8" font-family="Times,serif" font-size="14.00">else</text>
</g>
<!-- S4 -->
<g id="node6" class="node">
<title>S4</title>
<ellipse fill="none" stroke="black" cx="27" cy="-550.8" rx="27" ry="18"/>
<text text-anchor="middle" x="27" y="-546.6" font-family="Times,serif" font-size="14.00">S4</text>
</g>
<!-- S3&#45;&gt;S4 -->
<g id="edge5" class="edge">
<title>S3-&gt;S4</title>
<path fill="none" stroke="black" stroke-dasharray="5,2" d="M27,-621.45C27,-609.76 27,-593.99 27,-580.42"/>
<polygon fill="black" stroke="black" points="30.5,-580.72 27,-570.72 23.5,-580.72 30.5,-580.72"/>
<text text-anchor="middle" x="55.44" y="-591" font-family="Times,serif" font-size="14.00">mutex = 1</text>
</g>
<!-- S8 -->
<g id="node13" class="node">
<title>S8</title>
<ellipse fill="none" stroke="black" cx="159" cy="-550.8" rx="27" ry="18"/>
<text text-anchor="middle" x="159" y="-546.6" font-family="Times,serif" font-size="14.00">S8</text>
</g>
<!-- S6&#45;&gt;S8 -->
<g id="edge12" class="edge">
<title>S6-&gt;S8</title>
<path fill="none" stroke="black" stroke-dasharray="5,2" d="M132.36,-621.86C136.94,-609.81 143.23,-593.29 148.54,-579.31"/>
<polygon fill="black" stroke="black" points="151.72,-580.79 152.01,-570.2 145.18,-578.3 151.72,-580.79"/>
<text text-anchor="middle" x="153.62" y="-591" font-family="Times,serif" font-size="14.00">(1)</text>
</g>
<!-- S13 -->
<g id="node7" class="node">
<title>S13</title>
<ellipse fill="none" stroke="black" cx="27" cy="-462" rx="27" ry="18"/>
<text text-anchor="middle" x="27" y="-457.8" font-family="Times,serif" font-size="14.00">S13</text>
</g>
<!-- S4&#45;&gt;S13 -->
<g id="edge6" class="edge">
<title>S4-&gt;S13</title>
<path fill="none" stroke="red" stroke-width="2" d="M27,-532.65C27,-520.96 27,-505.19 27,-491.62"/>
<polygon fill="red" stroke="red" stroke-width="2" points="30.5,-493.44 27,-483.44 23.5,-493.44 30.5,-493.44"/>
<text text-anchor="middle" x="50.14" y="-502.2" font-family="Times,serif" font-size="14.00">goto :b0</text>
</g>
<!-- S14 -->
<g id="node8" class="node">
<title>S14</title>
<ellipse fill="none" stroke="black" cx="27" cy="-373.2" rx="27" ry="18"/>
<text text-anchor="middle" x="27" y="-369" font-family="Times,serif" font-size="14.00">S14</text>
</g>
<!-- S13&#45;&gt;S14 -->
<g id="edge7" class="edge">
<title>S13-&gt;S14</title>
<path fill="none" stroke="red" stroke-width="2" d="M27,-443.85C27,-432.16 27,-416.39 27,-402.82"/>
<polygon fill="red" stroke="red" stroke-width="2" points="30.5,-404.64 27,-394.64 23.5,-404.64 30.5,-404.64"/>
<text text-anchor="middle" x="66.33" y="-413.4" font-family="Times,serif" font-size="14.00">tmp = counter</text>
</g>
<!-- S15 -->
<g id="node9" class="node">
<title>S15</title>
<ellipse fill="none" stroke="black" cx="27" cy="-284.4" rx="27" ry="18"/>
<text text-anchor="middle" x="27" y="-280.2" font-family="Times,serif" font-size="14.00">S15</text>
</g>
<!-- S14&#45;&gt;S15 -->
<g id="edge8" class="edge">
<title>S14-&gt;S15</title>
<path fill="none" stroke="red" stroke-width="2" d="M27,-355.05C27,-343.36 27,-327.59 27,-314.02"/>
<polygon fill="red" stroke="red" stroke-width="2" points="30.5,-315.84 27,-305.84 23.5,-315.84 30.5,-315.84"/>
<text text-anchor="middle" x="78.44" y="-324.6" font-family="Times,serif" font-size="14.00">counter = (tmp+1)</text>
</g>
<!-- S16 -->
<g id="node10" class="node">
<title>S16</title>
<ellipse fill="none" stroke="black" cx="27" cy="-195.6" rx="27" ry="18"/>
<text text-anchor="middle" x="27" y="-191.4" font-family="Times,serif" font-size="14.00">S16</text>
</g>
<!-- S15&#45;&gt;S16 -->
<g id="edge9" class="edge">
<title>S15-&gt;S16</title>
<path fill="none" stroke="red" stroke-width="2" d="M27,-266.25C27,-254.56 27,-238.79 27,-225.22"/>
<polygon fill="red" stroke="red" stroke-width="2" points="30.5,-227.04 27,-217.04 23.5,-227.04 30.5,-227.04"/>
<text text-anchor="middle" x="55.44" y="-235.8" font-family="Times,serif" font-size="14.00">mutex = 0</text>
</g>
<!-- S17 -->
<g id="node11" class="node">
<title>S17</title>
<polygon fill="none" stroke="blue" stroke-width="2" points="54,-124.8 0,-124.8 0,-88.8 54,-88.8 54,-124.8"/>
<text text-anchor="middle" x="27" y="-102.6" font-family="Times,serif" font-size="14.00">S17</text>
</g>
<!-- S16&#45;&gt;S17 -->
<g id="edge10" class="edge">
<title>S16-&gt;S17</title>
<path fill="none" stroke="red" stroke-width="2" d="M27,-177.45C27,-165.76 27,-149.99 27,-136.42"/>
<polygon fill="red" stroke="red" stroke-width="2" points="30.5,-138.24 27,-128.24 23.5,-138.24 30.5,-138.24"/>
<text text-anchor="middle" x="90.43" y="-147" font-family="Times,serif" font-size="14.00">progress[procs_id] = 1</text>
</g>
<!-- S0 -->
<g id="node12" class="node">
<title>S0</title>
<ellipse fill="none" stroke="black" cx="27" cy="-18" rx="27" ry="18"/>
<text text-anchor="middle" x="27" y="-13.8" font-family="Times,serif" font-size="14.00">S0</text>
</g>
<!-- S17&#45;&gt;S0 -->
<g id="edge11" class="edge">
<title>S17-&gt;S0</title>
<path fill="none" stroke="black" d="M27,-88.65C27,-76.96 27,-61.19 27,-47.62"/>
<polygon fill="black" stroke="black" points="30.5,-47.92 27,-37.92 23.5,-47.92 30.5,-47.92"/>
<text text-anchor="middle" x="41.77" y="-58.2" font-family="Times,serif" font-size="14.00">-end-</text>
</g>
<!-- S8&#45;&gt;S10 -->
<g id="edge13" class="edge">
<title>S8-&gt;S10</title>
<path fill="none" stroke="red" stroke-width="2" d="M163.1,-568.79C164.28,-574.48 165.41,-580.88 166,-586.8 166.74,-594.23 166.08,-596.13 166,-603.6 165.11,-682.55 172.79,-702.99 162,-781.2 161.68,-783.53 161.26,-785.93 160.77,-788.33"/>
<polygon fill="red" stroke="red" stroke-width="2" points="157.78,-785.78 158.88,-796.32 164.59,-787.39 157.78,-785.78"/>
<text text-anchor="middle" x="186.55" y="-679.8" font-family="Times,serif" font-size="14.00">.(goto)</text>
</g>
</g>
</svg>