<svg xmlns="http://www.w3.org/2000/svg" xmlns:xlink="http://www.w3.org/1999/xlink" width="355pt" height="720pt" viewBox="0.00 0.00 355.19 720.00">
<g id="graph0" class="graph" transform="scale(0.716418 0.716418) rotate(0) translate(4 1001)">
<title>init</title>
<polygon fill="white" stroke="none" points="-4,4 -4,-1001 491.78,-1001 491.78,4 -4,4"/>
<!-- GT -->
<g id="node1" class="node">
<title>GT</title>
<polygon fill="none" stroke="black" stroke-dasharray="1,5" points="175,-997 121,-997 121,-961 175,-961 175,-997"/>
<text text-anchor="middle" x="148" y="-974.8" font-family="Times,serif" font-size="14.00">init</text>
</g>
<!-- S11 -->
<g id="node2" class="node">
<title>S11</title>
<ellipse fill="none" stroke="black" cx="148" cy="-906" rx="27" ry="18"/>
<text text-anchor="middle" x="148" y="-901.8" font-family="Times,serif" font-size="14.00">S11</text>
</g>
<!-- GT&#45;&gt;S11 -->
<g id="edge1" class="edge">
<title>GT-&gt;S11</title>
<path fill="none" stroke="black" d="M148,-960.81C148,-953.23 148,-944.1 148,-935.54"/>
<polygon fill="black" stroke="black" points="151.5,-935.54 148,-925.54 144.5,-935.54 151.5,-935.54"/>
</g>
<!-- S8 -->
<g id="node3" class="node">
<title>S8</title>
<ellipse fill="none" stroke="black" cx="148" cy="-817.2" rx="27" ry="18"/>
<text text-anchor="middle" x="148" y="-813" font-family="Times,serif" font-size="14.00">S8</text>
</g>
<!-- S11&#45;&gt;S8 -->
<g id="edge2" class="edge">
<title>S11-&gt;S8</title>
<path fill="none" stroke="black" stroke-dasharray="5,2" d="M148,-887.85C148,-876.16 148,-860.39 148,-846.82"/>
<polygon fill="black" stroke="black" points="151.5,-847.12 148,-837.12 144.5,-847.12 151.5,-847.12"/>
<text text-anchor="middle" x="160.89" y="-857.4" font-family="Times,serif" font-size="14.00">i = 0</text>
</g>
<!-- S3 -->
<g id="node4" class="node">
<title>S3</title>
<ellipse fill="none" stroke="black" cx="68" cy="-728.4" rx="27" ry="18"/>
<text text-anchor="middle" x="68" y="-724.2" font-family="Times,serif" font-size="14.00">S3</text>
</g>
<!-- S8&#45;&gt;S3 -->
<g id="edge3" class="edge">
<title>S8-&gt;S3</title>
<path fill="none" stroke="black" stroke-dasharray="5,2" d="M127.26,-805.18C117.14,-799.07 105.29,-790.78 96.57,-781.2 89.95,-773.94 84.3,-764.87 79.8,-756.37"/>
<polygon fill="black" stroke="black" points="82.96,-754.86 75.41,-747.43 76.68,-757.95 82.96,-754.86"/>
<text text-anchor="middle" x="115.28" y="-768.6" font-family="Times,serif" font-size="14.00">((i&lt;2))</text>
</g>
<!-- S7 -->
<g id="node5" class="node">
<title>S7</title>
<ellipse fill="none" stroke="black" cx="210" cy="-728.4" rx="27" ry="18"/>
<text text-anchor="middle" x="210" y="-724.2" font-family="Times,serif" font-size="14.00">S7</text>
</g>
<!-- S8&#45;&gt;S7 -->
<g id="edge4" class="edge">
<title>S8-&gt;S7</title>
<path fill="none" stroke="black" stroke-dasharray="5,2" d="M159.08,-800.68C168.28,-787.8 181.54,-769.24 192.22,-754.29"/>
<polygon fill="black" stroke="black" points="194.96,-756.48 197.92,-746.31 189.26,-752.41 194.96,-756.48"/>
<text text-anchor="middle" x="207.22" y="-768.6" font-family="Times,serif" font-size="14.00">((i&gt;=2))</text>
</g>
<!-- S4 -->
<g id="node6" class="node">
<title>S4</title>
<ellipse fill="none" stroke="black" cx="27" cy="-639.6" rx="27" ry="18"/>
<text text-anchor="middle" x="27" y="-635.4" font-family="Times,serif" font-size="14.00">S4</text>
</g>
<!-- S3&#45;&gt;S4 -->
<g id="edge5" class="edge">
<title>S3-&gt;S4</title>
<path fill="none" stroke="black" stroke-dasharray="5,2" d="M55.69,-712.01C51.39,-706.12 46.81,-699.18 43.46,-692.4 39.74,-684.9 36.63,-676.38 34.14,-668.45"/>
<polygon fill="black" stroke="black" points="37.52,-667.52 31.37,-658.88 30.79,-669.46 37.52,-667.52"/>
<text text-anchor="middle" x="84.73" y="-679.8" font-family="Times,serif" font-size="14.00">progress[i] = 0</text>
</g>
<!-- S10 -->
<g id="node8" class="node">
<title>S10</title>
<ellipse fill="none" stroke="black" cx="218" cy="-639.6" rx="27" ry="18"/>
<text text-anchor="middle" x="218" y="-635.4" font-family="Times,serif" font-size="14.00">S10</text>
</g>
<!-- S7&#45;&gt;S10 -->
<g id="edge8" class="edge">
<title>S7-&gt;S10</title>
<path fill="none" stroke="black" stroke-dasharray="5,2" d="M211.58,-710.25C212.66,-698.56 214.11,-682.79 215.36,-669.22"/>
<polygon fill="black" stroke="black" points="218.82,-669.8 216.26,-659.52 211.85,-669.15 218.82,-669.8"/>
<text text-anchor="middle" x="237.86" y="-679.8" font-family="Times,serif" font-size="14.00">goto :b1</text>
</g>
<!-- S5 -->
<g id="node7" class="node">
<title>S5</title>
<ellipse fill="none" stroke="black" cx="84" cy="-550.8" rx="27" ry="18"/>
<text text-anchor="middle" x="84" y="-546.6" font-family="Times,serif" font-size="14.00">S5</text>
</g>
<!-- S4&#45;&gt;S5 -->
<g id="edge6" class="edge">
<title>S4-&gt;S5</title>
<path fill="none" stroke="black" stroke-dasharray="5,2" d="M20.74,-621.64C17.9,-610.96 16.37,-597.26 22.45,-586.8 28.43,-576.52 38.68,-569.01 49.12,-563.65"/>
<polygon fill="black" stroke="black" points="50.42,-566.9 58.09,-559.6 47.54,-560.52 50.42,-566.9"/>
<text text-anchor="middle" x="78.23" y="-591" font-family="Times,serif" font-size="14.00">(run incrementer(i))</text>
</g>
<!-- S5&#45;&gt;S8 -->
<g id="edge7" class="edge">
<title>S5-&gt;S8</title>
<path fill="none" stroke="black" stroke-dasharray="5,2" d="M106.08,-561.55C116.41,-567.32 127.79,-575.71 134,-586.8 170.06,-651.19 161.32,-742.3 153.69,-787.89"/>
<polygon fill="black" stroke="black" points="150.29,-787.02 151.98,-797.48 157.18,-788.26 150.29,-787.02"/>
<text text-anchor="middle" x="183.59" y="-679.8" font-family="Times,serif" font-size="14.00">i = (i+1)</text>
</g>
<!-- S23 -->
<g id="node9" class="node">
<title>S23</title>
<ellipse fill="none" stroke="black" cx="218" cy="-550.8" rx="27" ry="18"/>
<text text-anchor="middle" x="218" y="-546.6" font-family="Times,serif" font-size="14.00">S23</text>
</g>
<!-- S10&#45;&gt;S23 -->
<g id="edge9" class="edge">
<title>S10-&gt;S23</title>
<path fill="none" stroke="red" stroke-width="2" d="M218,-621.45C218,-609.76 218,-593.99 218,-580.42"/>
<polygon fill="red" stroke="red" stroke-width="2" points="221.5,-582.24 218,-572.24 214.5,-582.24 221.5,-582.24"/>
<text text-anchor="middle" x="233.54" y="-591" font-family="Times,serif" font-size="14.00">break</text>
</g>
<!-- S13 -->
<g id="node10" class="node">
<title>S13</title>
<ellipse fill="none" stroke="black" cx="218" cy="-462" rx="27" ry="18"/>
<text text-anchor="middle" x="218" y="-457.8" font-family="Times,serif" font-size="14.00">S13</text>
</g>
<!-- S23&#45;&gt;S13 -->
<g id="edge10" class="edge">
<title>S23-&gt;S13</title>
<path fill="none" stroke="black" stroke-dasharray="5,2" d="M218,-532.65C218,-520.96 218,-505.19 218,-491.62"/>
<polygon fill="black" stroke="black" points="221.5,-491.92 218,-481.92 214.5,-491.92 221.5,-491.92"/>
<text text-anchor="middle" x="230.89" y="-502.2" font-family="Times,serif" font-size="14.00">i = 0</text>
</g>
<!-- S19 -->
<g id="node11" class="node">
<title>S19</title>
<ellipse fill="none" stroke="black" cx="218" cy="-373.2" rx="27" ry="18"/>
<text text-anchor="middle" x="218" y="-369" font-family="Times,serif" font-size="14.00">S19</text>
</g>
<!-- S13&#45;&gt;S19 -->
<g id="edge11" class="edge">
<title>S13-&gt;S19</title>
<path fill="none" stroke="black" stroke-dasharray="5,2" d="M218,-443.85C218,-432.16 218,-416.39 218,-402.82"/>
<polygon fill="black" stroke="black" points="221.5,-403.12 218,-393.12 214.5,-403.12 221.5,-403.12"/>
<text text-anchor="middle" x="240.62" y="-413.4" font-family="Times,serif" font-size="14.00">sum = 0</text>
</g>
<!-- S15 -->
<g id="node12" class="node">
<title>S15</title>
<ellipse fill="none" stroke="black" cx="110" cy="-284.4" rx="27" ry="18"/>
<text text-anchor="middle" x="110" y="-280.2" font-family="Times,serif" font-size="14.00">S15</text>
</g>
<!-- S19&#45;&gt;S15 -->
<g id="edge12" class="edge">
<title>S19-&gt;S15</title>
<path fill="none" stroke="black" stroke-dasharray="5,2" d="M198.97,-360.19C189.06,-353.71 176.9,-345.38 166.57,-337.2 154.94,-328 142.72,-317 132.63,-307.51"/>
<polygon fill="black" stroke="black" points="135.12,-305.05 125.47,-300.68 130.29,-310.11 135.12,-305.05"/>
<text text-anchor="middle" x="185.28" y="-324.6" font-family="Times,serif" font-size="14.00">((i&lt;2))</text>
</g>
<!-- S21 -->
<g id="node13" class="node">
<title>S21</title>
<ellipse fill="none" stroke="black" cx="310" cy="-284.4" rx="27" ry="18"/>
<text text-anchor="middle" x="310" y="-280.2" font-family="Times,serif" font-size="14.00">S21</text>
</g>
<!-- S19&#45;&gt;S21 -->
<g id="edge13" class="edge">
<title>S19-&gt;S21</title>
<path fill="none" stroke="black" stroke-dasharray="5,2" d="M233.19,-357.87C247.71,-344.17 269.8,-323.33 286.57,-307.51"/>
<polygon fill="black" stroke="black" points="288.81,-310.2 293.68,-300.79 284.01,-305.11 288.81,-310.2"/>
<text text-anchor="middle" x="294.9" y="-324.6" font-family="Times,serif" font-size="14.00">((i&gt;=2))</text>
</g>
<!-- S16 -->
<g id="node14" class="node">
<title>S16</title>
<ellipse fill="none" stroke="black" cx="141" cy="-195.6" rx="27" ry="18"/>
<text text-anchor="middle" x="141" y="-191.4" font-family="Times,serif" font-size="14.00">S16</text>
</g>
<!-- S15&#45;&gt;S16 -->
<g id="edge14" class="edge">
<title>S15-&gt;S16</title>
<path fill="none" stroke="black" stroke-dasharray="5,2" d="M89.05,-272.47C72.83,-262.5 54.67,-247 64.56,-231.6 73.44,-217.76 89.31,-209.33 104.3,-204.22"/>
<polygon fill="black" stroke="black" points="104.9,-207.69 113.49,-201.49 102.91,-200.98 104.9,-207.69"/>
<text text-anchor="middle" x="134.28" y="-235.8" font-family="Times,serif" font-size="14.00">sum = (sum+progress[i])</text>
</g>
<!-- S22 -->
<g id="node15" class="node">
<title>S22</title>
<ellipse fill="none" stroke="black" cx="310" cy="-195.6" rx="27" ry="18"/>
<text text-anchor="middle" x="310" y="-191.4" font-family="Times,serif" font-size="14.00">S22</text>
</g>
<!-- S21&#45;&gt;S22 -->
<g id="edge16" class="edge">
<title>S21-&gt;S22</title>
<path fill="none" stroke="black" stroke-dasharray="5,2" d="M310,-266.25C310,-254.56 310,-238.79 310,-225.22"/>
<polygon fill="black" stroke="black" points="313.5,-225.52 310,-215.52 306.5,-225.52 313.5,-225.52"/>
<text text-anchor="middle" x="325.54" y="-235.8" font-family="Times,serif" font-size="14.00">break</text>
</g>
<!-- S16&#45;&gt;S19 -->
<g id="edge15" class="edge">
<title>S16-&gt;S19</title>
<path fill="none" stroke="black" stroke-dasharray="5,2" d="M165.27,-203.81C178.96,-209.19 195.07,-218.01 204,-231.6 226.12,-265.26 225.63,-313.59 222.42,-343.91"/>
<polygon fill="black" stroke="black" points="219,-343.11 221.24,-353.46 225.94,-343.97 219,-343.11"/>
<text text-anchor="middle" x="247.18" y="-280.2" font-family="Times,serif" font-size="14.00">i = (i+1)</text>
</g>
<!-- S24 -->
<g id="node16" class="node">
<title>S24</title>
<polygon fill="none" stroke="blue" stroke-width="2" points="337,-124.8 283,-124.8 283,-88.8 337,-88.8 337,-124.8"/>
<text text-anchor="middle" x="310" y="-102.6" font-family="Times,serif" font-size="14.00">S24</text>
</g>
<!-- S22&#45;&gt;S24 -->
<g id="edge17" class="edge">
<title>S22-&gt;S24</title>
<path fill="none" stroke="red" stroke-width="2" d="M310,-177.45C310,-165.76 310,-149.99 310,-136.42"/>
<polygon fill="red" stroke="red" stroke-width="2" points="313.5,-138.24 310,-128.24 306.5,-138.24 313.5,-138.24"/>
<text text-anchor="middle" x="398.89" y="-147" font-family="Times,serif" font-size="14.00">assert(((sum&lt;2)||(counter==2)))</text>
</g>
<!-- S0 -->
<g id="node17" class="node">
<title>S0</title>
<ellipse fill="none" stroke="black" cx="310" cy="-18" rx="27" ry="18"/>
<text text-anchor="middle" x="310" y="-13.8" font-family="Times,serif" font-size="14.00">S0</text>
</g>
<!-- S24&#45;&gt;S0 -->
<g id="edge18" class="edge">
<title>S24-&gt;S0</title>
<path fill="none" stroke="blue" d="M310,-88.65C310,-76.96 310,-61.19 310,-47.62"/>
<polygon fill="blue" stroke="blue" points="313.5,-47.92 310,-37.92 306.5,-47.92 313.5,-47.92"/>
<text text-anchor="middle" x="324.77" y="-58.2" font-family="Times,serif" font-size="14.00">-end-</text>
</g>
</g>
</svg>