<svg width="408pt" height="472pt" xmlns="http://www.w3.org/2000/svg" xmlns:xlink="http://www.w3.org/1999/xlink" xmlns:ev="http://www.w3.org/2001/xml-events" style="overflow: hidden; "><g id="viewport-20250319140021857" class="svg-pan-zoom_viewport" transform="matrix(0.8876682768936515,0,0,0.8876682768936515,0,77.4215198254089)" style="transform: matrix(0.887668, 0, 0, 0.887668, 0, 77.4215);">
<g id="graph0" class="graph" transform="scale(1 1) rotate(0) translate(4 468.2)">
<title>init</title>
<polygon fill="white" stroke="none" points="-4,4 -4,-468.2 403.81,-468.2 403.81,4 -4,4"></polygon>
<!-- GT -->
<g id="node1" class="node">
<title>GT</title>
<polygon fill="none" stroke="black" stroke-dasharray="1,5" points="54,-464.2 0,-464.2 0,-428.2 54,-428.2 54,-464.2"></polygon>
<text text-anchor="middle" x="27" y="-442" font-family="Times,serif" font-size="14.00">init</text>
</g>
<!-- S1 -->
<g id="node2" class="node">
<title>S1</title>
<ellipse fill="none" stroke="black" cx="27" cy="-373.2" rx="27" ry="18"></ellipse>
<text text-anchor="middle" x="27" y="-369" font-family="Times,serif" font-size="14.00">S1</text>
</g>
<!-- GT&#45;&gt;S1 -->
<g id="edge1" class="edge">
<title>GT-&gt;S1</title>
<path fill="none" stroke="black" d="M27,-428.01C27,-420.43 27,-411.3 27,-402.74"></path>
<polygon fill="black" stroke="black" points="30.5,-402.74 27,-392.74 23.5,-402.74 30.5,-402.74"></polygon>
</g>
<!-- S2 -->
<g id="node3" class="node">
<title>S2</title>
<ellipse fill="none" stroke="black" cx="27" cy="-284.4" rx="27" ry="18"></ellipse>
<text text-anchor="middle" x="27" y="-280.2" font-family="Times,serif" font-size="14.00">S2</text>
</g>
<!-- S1&#45;&gt;S2 -->
<g id="edge2" class="edge">
<title>S1-&gt;S2</title>
<path fill="none" stroke="red" stroke-width="2" d="M27,-355.05C27,-343.36 27,-327.59 27,-314.02"></path>
<polygon fill="red" stroke="red" stroke-width="2" points="30.5,-315.84 27,-305.84 23.5,-315.84 30.5,-315.84"></polygon>
<text text-anchor="middle" x="115.23" y="-324.6" font-family="Times,serif" font-size="14.00">(run factorial(7,child_channel))</text>
</g>
<!-- S3 -->
<g id="node4" class="node">
<title>S3</title>
<ellipse fill="none" stroke="black" cx="27" cy="-195.6" rx="27" ry="18"></ellipse>
<text text-anchor="middle" x="27" y="-191.4" font-family="Times,serif" font-size="14.00">S3</text>
</g>
<!-- S2&#45;&gt;S3 -->
<g id="edge3" class="edge">
<title>S2-&gt;S3</title>
<path fill="none" stroke="red" stroke-width="2" d="M27,-266.25C27,-254.56 27,-238.79 27,-225.22"></path>
<polygon fill="red" stroke="red" stroke-width="2" points="30.5,-227.04 27,-217.04 23.5,-227.04 30.5,-227.04"></polygon>
<text text-anchor="middle" x="213.41" y="-235.8" font-family="Times,serif" font-size="14.00">child_channel?factorial_result.msg_type,factorial_result.msg_data</text>
</g>
<!-- S4 -->
<g id="node5" class="node">
<title>S4</title>
<polygon fill="none" stroke="blue" stroke-width="2" points="54,-124.8 0,-124.8 0,-88.8 54,-88.8 54,-124.8"></polygon>
<text text-anchor="middle" x="27" y="-102.6" font-family="Times,serif" font-size="14.00">S4</text>
</g>
<!-- S3&#45;&gt;S4 -->
<g id="edge4" class="edge">
<title>S3-&gt;S4</title>
<path fill="none" stroke="black" d="M27,-177.45C27,-165.76 27,-149.99 27,-136.42"></path>
<polygon fill="black" stroke="black" points="30.5,-136.72 27,-126.72 23.5,-136.72 30.5,-136.72"></polygon>
<text text-anchor="middle" x="157.87" y="-147" font-family="Times,serif" font-size="14.00">printf('%d! = %d ',7,factorial_result.msg_data)</text>
</g>
<!-- S0 -->
<g id="node6" class="node">
<title>S0</title>
<ellipse fill="none" stroke="black" cx="27" cy="-18" rx="27" ry="18"></ellipse>
<text text-anchor="middle" x="27" y="-13.8" font-family="Times,serif" font-size="14.00">S0</text>
</g>
<!-- S4&#45;&gt;S0 -->
<g id="edge5" class="edge">
<title>S4-&gt;S0</title>
<path fill="none" stroke="black" d="M27,-88.65C27,-76.96 27,-61.19 27,-47.62"></path>
<polygon fill="black" stroke="black" points="30.5,-47.92 27,-37.92 23.5,-47.92 30.5,-47.92"></polygon>
<text text-anchor="middle" x="41.77" y="-58.2" font-family="Times,serif" font-size="14.00">-end-</text>
</g>
</g>
</g></svg>