<svg xmlns="http://www.w3.org/2000/svg" xmlns:xlink="http://www.w3.org/1999/xlink" width="110pt" height="383pt" viewBox="0.00 0.00 110.01 383.40">
<g id="graph0" class="graph" transform="scale(1 1) rotate(0) translate(4 379.4)">
<title>init</title>
<polygon fill="white" stroke="none" points="-4,4 -4,-379.4 106.01,-379.4 106.01,4 -4,4"/>
<!-- GT -->
<g id="node1" class="node">
<title>GT</title>
<polygon fill="none" stroke="black" stroke-dasharray="1,5" points="54,-375.4 0,-375.4 0,-339.4 54,-339.4 54,-375.4"/>
<text text-anchor="middle" x="27" y="-353.2" font-family="Times,serif" font-size="14.00">init</text>
</g>
<!-- S1 -->
<g id="node2" class="node">
<title>S1</title>
<ellipse fill="none" stroke="black" cx="27" cy="-284.4" rx="27" ry="18"/>
<text text-anchor="middle" x="27" y="-280.2" font-family="Times,serif" font-size="14.00">S1</text>
</g>
<!-- GT&#45;&gt;S1 -->
<g id="edge1" class="edge">
<title>GT-&gt;S1</title>
<path fill="none" stroke="black" d="M27,-339.21C27,-331.63 27,-322.5 27,-313.94"/>
<polygon fill="black" stroke="black" points="30.5,-313.94 27,-303.94 23.5,-313.94 30.5,-313.94"/>
</g>
<!-- S2 -->
<g id="node3" class="node">
<title>S2</title>
<ellipse fill="none" stroke="black" cx="27" cy="-195.6" rx="27" ry="18"/>
<text text-anchor="middle" x="27" y="-191.4" font-family="Times,serif" font-size="14.00">S2</text>
</g>
<!-- S1&#45;&gt;S2 -->
<g id="edge2" class="edge">
<title>S1-&gt;S2</title>
<path fill="none" stroke="blue" d="M27,-266.25C27,-254.56 27,-238.79 27,-225.22"/>
<polygon fill="blue" stroke="blue" points="30.5,-225.52 27,-215.52 23.5,-225.52 30.5,-225.52"/>
<text text-anchor="middle" x="62.95" y="-235.8" font-family="Times,serif" font-size="14.00">(run client())</text>
</g>
<!-- S3 -->
<g id="node4" class="node">
<title>S3</title>
<polygon fill="none" stroke="blue" stroke-width="2" points="54,-124.8 0,-124.8 0,-88.8 54,-88.8 54,-124.8"/>
<text text-anchor="middle" x="27" y="-102.6" font-family="Times,serif" font-size="14.00">S3</text>
</g>
<!-- S2&#45;&gt;S3 -->
<g id="edge3" class="edge">
<title>S2-&gt;S3</title>
<path fill="none" stroke="blue" d="M27,-177.45C27,-165.76 27,-149.99 27,-136.42"/>
<polygon fill="blue" stroke="blue" points="30.5,-136.72 27,-126.72 23.5,-136.72 30.5,-136.72"/>
<text text-anchor="middle" x="64.51" y="-147" font-family="Times,serif" font-size="14.00">(run server())</text>
</g>
<!-- S0 -->
<g id="node5" class="node">
<title>S0</title>
<ellipse fill="none" stroke="black" cx="27" cy="-18" rx="27" ry="18"/>
<text text-anchor="middle" x="27" y="-13.8" font-family="Times,serif" font-size="14.00">S0</text>
</g>
<!-- S3&#45;&gt;S0 -->
<g id="edge4" class="edge">
<title>S3-&gt;S0</title>
<path fill="none" stroke="blue" d="M27,-88.65C27,-76.96 27,-61.19 27,-47.62"/>
<polygon fill="blue" stroke="blue" points="30.5,-47.92 27,-37.92 23.5,-47.92 30.5,-47.92"/>
<text text-anchor="middle" x="41.77" y="-58.2" font-family="Times,serif" font-size="14.00">-end-</text>
</g>
</g>
</svg>